<svg width="100" height="100" viewBox="0 0 100 100" fill="none" xmlns="http://www.w3.org/2000/svg">
<rect width="100" height="100" rx="50" fill="url(#paint0_linear_58_341)"/>
<path d="M32 71.5C30.7625 71.5 29.7031 71.0568 28.8219 70.1704C27.9406 69.284 27.5 68.2184 27.5 66.9737V42.0789C27.5 40.8342 27.9406 39.7686 28.8219 38.8822C29.7031 37.9958 30.7625 37.5526 32 37.5526H41V33.0263C41 31.7816 41.4406 30.716 42.3219 29.8296C43.2031 28.9432 44.2625 28.5 45.5 28.5H54.5C55.7375 28.5 56.7969 28.9432 57.6781 29.8296C58.5594 30.716 59 31.7816 59 33.0263V37.5526H68C69.2375 37.5526 70.2969 37.9958 71.1781 38.8822C72.0594 39.7686 72.5 40.8342 72.5 42.0789V66.9737C72.5 68.2184 72.0594 69.284 71.1781 70.1704C70.2969 71.0568 69.2375 71.5 68 71.5H32ZM45.5 37.5526H54.5V33.0263H45.5V37.5526ZM68 57.9211H56.75V62.4474H43.25V57.9211H32V66.9737H68V57.9211ZM47.75 57.9211H52.25V53.3947H47.75V57.9211ZM32 53.3947H43.25V48.8684H56.75V53.3947H68V42.0789H32V53.3947Z" fill="white"/>
<defs>
<linearGradient id="paint0_linear_58_341" x1="16.5" y1="15.5" x2="74.5" y2="95" gradientUnits="userSpaceOnUse">
<stop stop-color="#9C56FF"/>
<stop offset="1" stop-color="#447BFF"/>
</linearGradient>
</defs>
</svg>
