<svg width="100" height="100" viewBox="0 0 100 100" fill="none" xmlns="http://www.w3.org/2000/svg">
<rect width="100" height="100" rx="50" fill="url(#paint0_linear_58_364)"/>
<path d="M50 72.5C46.0881 72.5 42.8958 71.8719 40.4232 70.6156C37.9506 69.3594 36.7143 67.7375 36.7143 65.75C36.7143 64.85 36.9818 64.0156 37.517 63.2469C38.0521 62.4781 38.7994 61.8125 39.7589 61.25L43.2464 64.5688C42.9143 64.7188 42.5545 64.8875 42.167 65.075C41.7795 65.2625 41.475 65.4875 41.2536 65.75C41.7333 66.35 42.8405 66.875 44.575 67.325C46.3095 67.775 48.1179 68 50 68C51.8821 68 53.6997 67.775 55.4527 67.325C57.2057 66.875 58.322 66.35 58.8018 65.75C58.5435 65.45 58.2113 65.2063 57.8054 65.0188C57.3994 64.8313 57.0119 64.6625 56.6429 64.5125L60.075 61.1375C61.1083 61.7375 61.9018 62.4219 62.4554 63.1906C63.0089 63.9594 63.2857 64.8125 63.2857 65.75C63.2857 67.7375 62.0494 69.3594 59.5768 70.6156C57.1042 71.8719 53.9119 72.5 50 72.5ZM50.0554 60.125C53.7089 57.3875 56.4583 54.6406 58.3036 51.8844C60.1488 49.1281 61.0714 46.3625 61.0714 43.5875C61.0714 39.7625 59.872 36.875 57.4732 34.925C55.0744 32.975 52.5833 32 50 32C47.4167 32 44.9256 32.975 42.5268 34.925C40.128 36.875 38.9286 39.7625 38.9286 43.5875C38.9286 46.1 39.8327 48.7156 41.6411 51.4344C43.4494 54.1531 46.2542 57.05 50.0554 60.125ZM50 65.75C44.7964 61.85 40.9122 58.0625 38.3473 54.3875C35.7824 50.7125 34.5 47.1125 34.5 43.5875C34.5 40.925 34.9705 38.5906 35.9116 36.5844C36.8527 34.5781 38.0613 32.9 39.5375 31.55C41.0137 30.2 42.6744 29.1875 44.5196 28.5125C46.3649 27.8375 48.1917 27.5 50 27.5C51.8083 27.5 53.6351 27.8375 55.4804 28.5125C57.3256 29.1875 58.9863 30.2 60.4625 31.55C61.9387 32.9 63.1473 34.5781 64.0884 36.5844C65.0295 38.5906 65.5 40.925 65.5 43.5875C65.5 47.1125 64.2176 50.7125 61.6527 54.3875C59.0878 58.0625 55.2036 61.85 50 65.75ZM50 47.75C51.2179 47.75 52.2604 47.3094 53.1277 46.4281C53.9949 45.5469 54.4286 44.4875 54.4286 43.25C54.4286 42.0125 53.9949 40.9531 53.1277 40.0719C52.2604 39.1906 51.2179 38.75 50 38.75C48.7821 38.75 47.7396 39.1906 46.8723 40.0719C46.0051 40.9531 45.5714 42.0125 45.5714 43.25C45.5714 44.4875 46.0051 45.5469 46.8723 46.4281C47.7396 47.3094 48.7821 47.75 50 47.75Z" fill="white"/>
<defs>
<linearGradient id="paint0_linear_58_364" x1="16.5" y1="15.5" x2="74.5" y2="95" gradientUnits="userSpaceOnUse">
<stop stop-color="#9C56FF"/>
<stop offset="1" stop-color="#447BFF"/>
</linearGradient>
</defs>
</svg>
