<svg width="100" height="100" viewBox="0 0 100 100" fill="none" xmlns="http://www.w3.org/2000/svg">
<rect width="100" height="100" rx="50" fill="url(#paint0_linear_58_370)"/>
<path d="M32 68C30.7625 68 29.7031 67.5594 28.8219 66.6781C27.9406 65.7969 27.5 64.7375 27.5 63.5V32C27.5 30.7625 27.9406 29.7031 28.8219 28.8219C29.7031 27.9406 30.7625 27.5 32 27.5H63.5C64.7375 27.5 65.7969 27.9406 66.6781 28.8219C67.5594 29.7031 68 30.7625 68 32V47.075C67.2875 46.7375 66.5562 46.4469 65.8062 46.2031C65.0562 45.9594 64.2875 45.7812 63.5 45.6687V32H32V63.5H45.6125C45.725 64.325 45.9031 65.1125 46.1469 65.8625C46.3906 66.6125 46.6812 67.325 47.0188 68H32ZM32 63.5V32V45.6687V45.5V63.5ZM36.5 59H45.6687C45.7812 58.2125 45.9594 57.4438 46.2031 56.6938C46.4469 55.9438 46.7188 55.2125 47.0188 54.5H36.5V59ZM36.5 50H50.225C51.425 48.875 52.7656 47.9375 54.2469 47.1875C55.7281 46.4375 57.3125 45.9312 59 45.6687V45.5H36.5V50ZM36.5 41H59V36.5H36.5V41ZM61.25 72.5C58.1375 72.5 55.4844 71.4031 53.2906 69.2094C51.0969 67.0156 50 64.3625 50 61.25C50 58.1375 51.0969 55.4844 53.2906 53.2906C55.4844 51.0969 58.1375 50 61.25 50C64.3625 50 67.0156 51.0969 69.2094 53.2906C71.4031 55.4844 72.5 58.1375 72.5 61.25C72.5 64.3625 71.4031 67.0156 69.2094 69.2094C67.0156 71.4031 64.3625 72.5 61.25 72.5ZM60.125 68H62.375V62.375H68V60.125H62.375V54.5H60.125V60.125H54.5V62.375H60.125V68Z" fill="white"/>
<defs>
<linearGradient id="paint0_linear_58_370" x1="13" y1="14" x2="78" y2="93.5" gradientUnits="userSpaceOnUse">
<stop stop-color="#9C56FF"/>
<stop offset="1" stop-color="#447BFF"/>
</linearGradient>
</defs>
</svg>
